<?xml version="1.0" standalone="no"?>
<!DOCTYPE svg PUBLIC "-//W3C//DTD SVG 20010904//EN"
 "http://www.w3.org/TR/2001/REC-SVG-20010904/DTD/svg10.dtd">
<svg version="1.0" xmlns="http://www.w3.org/2000/svg"
 width="1000.000000pt" height="1000.000000pt" viewBox="0 0 1000.000000 1000.000000"
 preserveAspectRatio="xMidYMid meet">
<metadata>
Created by potrace 1.14, written by Peter Selinger 2001-2017
</metadata>
<g transform="translate(0.000000,1000.000000) scale(0.100000,-0.100000)"
fill="#000000" stroke="none">
<path d="M3020 5913 l0 -1508 683 -892 682 -893 338 0 337 0 0 424 0 424 468
5 c375 4 483 8 549 21 518 102 825 431 875 939 32 324 -67 640 -269 858 -57
62 -1160 1510 -1275 1674 -177 254 -449 406 -791 444 -60 7 -379 11 -847 11
l-750 0 0 -1507z m1661 1255 c353 -96 574 -345 621 -698 14 -106 0 -275 -31
-376 -45 -147 -140 -275 -271 -364 -54 -37 -186 -104 -243 -124 -15 -5 -3 -24
75 -118 505 -607 578 -699 578 -723 l0 -25 -302 2 -303 3 -313 403 -314 402
-199 0 -199 0 0 -405 0 -405 -275 0 -275 0 0 1231 0 1230 678 -3 677 -4 96
-26z"/>
<path d="M3780 6375 l0 -356 373 3 372 3 63 34 c97 53 151 130 173 244 24 134
-48 301 -163 373 -76 49 -126 54 -485 54 l-333 0 0 -355z"/>
</g>
</svg>
